<?xml version="1.0" standalone="no"?><!DOCTYPE svg PUBLIC "-//W3C//DTD SVG 1.1//EN" "http://www.w3.org/Graphics/SVG/1.1/DTD/svg11.dtd"><svg t="1723887497557" class="icon" viewBox="0 0 1024 1024" version="1.1" xmlns="http://www.w3.org/2000/svg" p-id="6901" xmlns:xlink="http://www.w3.org/1999/xlink" width="200" height="200"><path d="M774.774922 819.380572l8.039499 61.07426 70.799461-61.07426-4.01975-26.452545-74.81921 26.452545z" fill="#F4DDCE" p-id="6902"></path><path d="M780.869381 885.641606l-8.947185-67.946735 79.746645-28.267917 4.797766 30.990973z m-3.241734-64.445663l7.131814 54.201785 66.131364-56.924841-3.371402-22.043788z" p-id="6903"></path><path d="M722.129169 798.1148v31.379981a4.668096 4.668096 0 0 0 6.094459 4.408758l161.438331-51.089721-69.243429-224.327962-589.34716 115.146376-17.116353 35.140392a3.501072 3.501072 0 0 0 1.037355 4.408757l94.52895 74.300533 9.98454-27.749239s-42.272206 116.832077-46.162286 139.91322 195.282029 96.084982 195.282029 96.084983l234.312501-43.050222 81.432347-74.559872-10.114209-59.777566" fill="#DD5048" p-id="6904"></path><path d="M468.366266 998.453934l-0.648346-0.259339c-0.518677-0.129669-50.441374-18.542716-99.197047-39.549149-28.656925-12.318587-51.478729-23.081143-67.557727-32.028328-28.138247-15.68999-30.861303-22.951474-30.212957-27.4899 2.723056-15.81966 22.951474-74.430202 35.788739-110.737618l-93.232257-73.263179a6.094459 6.094459 0 0 1-1.685702-7.520821l17.7647-36.177747 1.167024-0.259339 591.681208-115.665053L892.903692 784.499519l-115.535384 36.566755 9.725201 57.962196-82.988379 75.986234h-0.778016zM321.580571 761.418376c-3.760411 10.373547-42.012867 117.091416-45.643608 138.616527-0.518677 2.852726 4.927435 15.430652 94.65862 53.942446 45.513939 19.580071 92.194902 36.826093 98.289361 39.030472l232.886138-42.790883 79.746645-73.133508-9.076854-54.461124-43.439229 13.74495a6.742806 6.742806 0 0 1-6.483467-1.037355 7.131814 7.131814 0 0 1-2.982395-5.83512v-31.379981h5.186774v31.379981a2.074709 2.074709 0 0 0 0.778016 1.685701 1.815371 1.815371 0 0 0 1.81537 0.259339l159.104283-50.311705L818.732829 561.468251l-585.846088 114.498029-16.597676 33.973368a0.907685 0.907685 0 0 0 0.259339 1.167024l91.676225 72.096154 8.169169-22.432796 0.648346-1.94504 4.927435 1.81537z" fill="#231815" p-id="6905"></path><path d="M468.495936 997.027571h-0.389008c-0.389008-0.259339-50.311705-18.542716-99.067378-39.549149-28.656925-12.318587-51.349059-23.081143-67.428057-32.028328-27.749239-15.430652-30.212957-22.303127-29.56461-26.063538 2.723056-15.949329 23.210812-75.208218 36.048077-111.515634l-94.010273-73.652186a5.186774 5.186774 0 0 1-1.296694-6.094459l17.375692-35.5294h0.648347l590.514183-115.535384 0.389008 1.167024 69.502768 225.624656-1.167024 0.389008-114.109021 36.048077 9.85487 58.351204-82.340032 75.337887h-0.259339zM320.543216 760.64036c-3.112064 8.428507-42.272206 117.221085-45.902947 139.135204-0.778016 5.057104 10.503217 18.931724 95.436636 55.368809 46.551294 19.969079 94.139942 37.604109 98.678369 39.289811l233.534485-43.050221 80.654331-73.781856-9.595531-56.665503-44.735923 14.263628a6.094459 6.094459 0 0 1-7.780161-5.705451v-31.379981h2.593387v31.379981a3.630742 3.630742 0 0 0 1.296694 2.723056 3.630742 3.630742 0 0 0 2.982394 0.518678L887.976257 781.906132l-68.335743-221.993913-587.661458 114.887037-16.857015 34.492045a2.204379 2.204379 0 0 0 0.648347 2.852725l93.102588 73.133509 8.687846-23.988828a10.243878 10.243878 0 0 0 0.648346-1.94504l2.463718 0.907685z" fill="#040000" p-id="6906"></path><path d="M468.236597 999.750627l-1.037355-0.389008c-0.389008-0.129669-50.571043-18.542716-99.197046-39.41948-28.786594-12.318587-51.478729-23.210812-67.687397-32.157997-28.656925-16.078998-31.639319-23.59982-30.731634-28.786594 2.593387-16.078998 22.951474-75.078549 35.39973-110.21894l-92.45424-72.614832a7.391152 7.391152 0 0 1-2.07471-9.076854l18.024039-36.826093 1.81537-0.389008 592.848232-115.924392 1.037355 3.371403 70.280783 228.088373-115.665053 36.566754 9.725201 57.573188-83.766395 76.764251h-1.167024z m-145.229663-238.202581c-1.815371 4.797766-42.142536 116.832077-45.773278 138.746196-0.259339 1.167024 0.778016 12.448257 93.880604 52.516083 44.735923 19.191063 90.120193 36.048077 97.770684 38.900803l232.237791-42.661214 79.098299-72.355492-8.817515-52.386415-42.012867 13.355943a8.558177 8.558177 0 0 1-11.151563-8.169169v-33.973368h7.78016v33.973368a1.037355 1.037355 0 0 0 0.259339 0.648347h0.648346l157.80759-50.052366-66.909381-217.196148-584.030716 114.23869-16.208668 33.065682 90.120193 70.799461 8.947184-25.026183 7.391153 2.723056z" fill="#231815" p-id="6907"></path><path d="M511.935165 1023.998794a510.248861 510.248861 0 1 1 199.301779-40.197496 508.692829 508.692829 0 0 1-199.301779 40.197496z m0-965.64759C261.803005 58.351204 58.351807 261.932071 58.351807 512.064232s203.451198 453.583358 453.583358 453.583358 453.713028-203.451198 453.713028-453.583358S762.067326 58.351204 511.935165 58.351204z" fill="#EF6662" p-id="6908"></path><path d="M190.095858 286.050569l53.034761 89.860854s0-105.421175-5.83512-116.961747-47.199641 27.100892-47.199641 27.100893z" fill="#EBB86F" p-id="6909"></path><path d="M245.724006 385.377285l-58.999551-99.845394 1.556033-1.426363c5.705451-5.316443 35.010722-31.898658 46.680963-29.823948a6.224128 6.224128 0 0 1 4.668096 3.501072c5.83512 11.670241 6.094459 107.236546 6.094459 118.128771z m-52.386414-98.937708l47.069971 79.876314c-0.129669-41.753528-1.685701-98.808039-5.446112-106.199191a1.167024 1.167024 0 0 0-0.907686-0.778016c-6.742806-1.167024-27.878909 15.430652-40.716173 27.100893z" p-id="6910"></path><path d="M244.427313 380.709188l-56.017156-94.917958 0.778016-0.778016c3.501072-3.241734 34.232706-31.50965 45.513939-29.434941a5.186774 5.186774 0 0 1 3.760411 2.723056c5.83512 11.670241 5.96479 113.331005 5.96479 117.610094z m-52.775423-94.52895l50.182036 84.933419c-0.129669-37.47444-1.426363-103.087127-5.705451-111.645304a2.204379 2.204379 0 0 0-1.815371-1.296693c-8.298838-1.556032-32.806344 19.061393-42.661214 28.008578z" fill="#231815" p-id="6911"></path><path d="M247.0207 390.17505L185.168423 285.272552l2.204379-2.074709c8.169169-7.650491 35.788738-32.287666 47.847987-30.212957a7.90983 7.90983 0 0 1 5.575782 4.149419c5.96479 12.059249 6.224128 107.884893 6.224129 118.777118z m-51.997407-103.476135l44.087577 74.819211c-0.259339-45.643608-1.94504-94.139942-5.316443-100.882749-5.446112-0.778016-23.59982 12.318587-38.771134 26.063538z" p-id="6912"></path><path d="M120.463422 344.272103l91.805894 82.599371s-53.812777-116.443069-57.573188-115.665053c-9.725201 2.204379-34.232706 33.065682-34.232706 33.065682z" fill="#EBB86F" p-id="6913"></path><path d="M219.919807 437.245021l-102.957458-92.713579 1.426363-1.94504c2.593387-3.241734 25.415191-31.639319 35.659069-33.973368 2.852726-0.518677 4.408758-0.907685 33.195352 58.999551 13.74495 28.656925 27.230562 57.832527 27.360231 58.091865z m-95.955313-93.232257l80.654331 72.485163c-18.802055-40.197496-44.735923-94.52895-50.571044-102.309111-6.742806 2.982395-21.136103 18.802055-30.083287 29.823948z" p-id="6914"></path><path d="M216.159396 432.058248l-97.511345-87.656476 0.778016-0.907685c1.037355-1.296693 24.896514-31.379981 34.881053-33.58436 1.556032-0.259339 3.371403-0.778016 31.768989 58.221535 13.74495 28.656925 27.230562 57.832527 27.360231 58.221535z m-93.880603-87.915814l86.100443 77.542266c-20.228417-43.568899-49.144681-104.124482-53.942447-109.051916-7.520822 2.334048-25.026183 22.562466-32.157996 31.50965z" fill="#231815" p-id="6915"></path><path d="M223.809887 442.431795l-108.662908-97.770684 2.204379-2.852725c4.279088-5.316443 25.933868-32.028327 36.437085-34.362376 3.760411-0.907685 5.316443-1.296693 34.621714 59.647897 13.485612 28.138247 26.841554 56.924841 27.360231 58.091866z m-98.030022-98.5487l74.948879 67.298389c-20.487756-43.698568-41.36452-86.489451-47.069971-95.436636-6.613136 3.760411-19.450401 17.7647-27.878908 28.138247z" p-id="6916"></path><path d="M803.561516 504.284071s67.817066-81.821355 119.166125-11.281233c0 0 25.285522 46.421624-7.002145 97.900354s-73.00384 49.793027-73.003839 49.793027-40.067827 0.648347-52.256745-34.751384l-79.616976 37.47444s-138.746196 63.0193-307.057002 83.766395c0 0-157.159243 14.911974-206.692931-108.792578s101.401425-189.706247 101.401425-189.706247-15.68999-136.412148 129.928681-202.154504 300.443866 30.342626 300.443866 30.342626 89.082838 56.924841 128.502318 208.76764" fill="#F4DDCE" p-id="6917"></path><path d="M388.100944 730.297734a289.032963 289.032963 0 0 1-69.762106-8.558176c-42.012867-10.892225-97.641015-37.47444-123.704553-102.309111-20.617425-51.608398-9.336193-101.531095 32.806344-144.062639 27.61957-28.138247 60.555583-44.606254 68.335743-48.366665-0.648347-7.780161-1.94504-38.382125 10.632886-75.597226s44.865592-92.843249 120.981496-127.205625 154.176848-24.118498 206.563262-9.595531c56.535833 15.68999 95.825644 39.808488 96.214652 40.067827s22.951474 14.911974 50.182035 47.977656c24.766844 30.342626 58.610543 82.85871 79.098299 160.919654a63.537978 63.537978 0 0 1 16.468006-1.815371c18.542716 0.648347 35.010722 10.632886 48.885342 29.694279v0.259339c0.259339 0.518677 25.67453 48.496334-7.002144 100.623409s-72.744501 51.089721-75.208218 50.960052-40.327165-0.648347-53.683108-33.843698l-77.153259 36.307415c-1.426363 0.648347-141.080244 63.408308-307.705348 84.025734-0.129669 0-6.094459 0.518677-15.949329 0.518677z m150.805444-523.993811c-34.881053 0-72.485162 5.96479-109.440924 22.562466-74.430202 33.58436-105.291506 86.100443-118.128771 124.223229-13.87462 41.234851-10.243878 74.94888-10.243878 75.208219l0.259339 1.94504-1.815371 0.778016c-0.389008 0.129669-37.733779 16.727345-68.595082 47.977656-40.975512 41.623859-51.608398 88.304822-31.379981 138.486858 25.155852 62.759962 79.098299 88.564161 119.944142 99.197046a278.011069 278.011069 0 0 0 84.025733 7.90983c165.847088-20.487756 304.852623-82.85871 306.149317-83.507056l82.340032-38.771133 0.907686 2.852725c11.410902 33.065682 49.404019 32.936013 49.793027 32.936013h0.129669c0.389008 0 39.678819 0.907685 70.669792-48.496334s8.428507-92.454241 7.002144-95.177297c-12.966934-17.7647-28.008578-26.971223-44.735923-27.4899h-1.556032c-35.788738 0-68.335743 38.641464-68.724751 39.030472l-3.890081-3.241734c1.167024-1.426363 23.59982-28.267917 52.905092-37.733778-20.228417-77.153259-53.553438-128.891326-78.060944-158.844944-26.582215-32.547005-48.755673-46.940302-49.015011-47.069972s-39.160141-23.988828-95.047628-39.549149c-25.933868-7.131814-58.221535-13.226273-93.491596-13.226273z" p-id="6918"></path><path d="M387.971274 729.649388a286.958254 286.958254 0 0 1-69.373098-8.558177c-42.012867-10.762555-97.381676-37.215101-123.315544-101.920103s3.371403-113.849682 32.547005-143.414292 61.722607-45.124931 68.595082-48.366665c-0.518677-6.872475-2.074709-38.382125 10.632886-75.726895s44.735923-92.71358 120.592488-126.946286 153.917509-23.988828 206.044585-9.465862a419.86933 419.86933 0 0 1 96.214651 39.938157c0.907685 0.648347 22.821804 14.782305 49.922697 47.847987 24.896514 30.342626 58.740212 82.988379 79.227968 161.308662a60.685252 60.685252 0 0 1 16.857014-1.94504c18.283377 0.648347 34.492045 10.503217 48.366665 29.43494v0.259339c0.259339 0.389008 25.54486 48.107326-7.002144 99.845393s-73.00384 50.830382-74.689541 50.700713-40.067827 0.259339-53.2941-33.973367l-77.801605 36.437085c-1.426363 0.648347-140.950575 63.408308-307.57568 84.025733 0 0-5.96479 0.518677-15.949329 0.518678z m150.935114-523.993812c-34.881053 0-72.614832 5.96479-109.700263 22.692135-74.559872 33.58436-105.550844 86.230112-118.517779 124.482569-14.004289 41.494189-10.243878 75.208218-10.243878 75.597226v1.426363l-1.296693 0.518677c-0.389008 0.259339-37.863448 16.857014-68.724751 48.236995-41.234851 41.753528-51.867737 88.564161-31.63932 139.135204 25.285522 63.0193 79.487307 88.953169 120.462819 99.586055a279.696771 279.696771 0 0 0 84.285072 7.90983c165.976758-20.487756 304.982292-82.988379 306.278986-83.636726l81.691686-38.382125 0.778016 2.07471c11.410902 33.714029 49.922697 33.45469 50.311705 33.45469s40.197496 1.037355 71.447807-48.885342 8.169169-93.361926 6.872475-95.825644c-13.096604-17.894369-28.267917-27.230562-45.2546-27.749239-36.696424-1.167024-70.410453 38.900803-70.669792 39.289811l-2.982395-2.463718c1.037355-1.426363 23.859159-28.527255 53.164431-37.733778-20.228417-77.542267-53.812777-129.669342-78.320283-159.62296-26.711884-32.676674-49.015011-47.069971-49.144681-47.199641s-39.030472-24.118498-95.047627-39.678819c-26.063538-7.131814-58.480873-13.226273-93.750935-13.226273z" p-id="6919"></path><path d="M387.971274 732.242774a287.347262 287.347262 0 0 1-70.021444-8.687845c-42.531544-10.892225-98.808039-37.733779-125.001246-103.476135s3.371403-115.924392 33.065682-146.137349c26.711884-27.100892 58.351204-43.568899 67.817066-48.107326-0.648347-9.206523-1.167024-39.678819 10.762555-75.078549 13.226273-39.41948 45.2546-93.750934 121.889182-128.372648s155.343872-24.248167 207.989625-9.725201a424.407756 424.407756 0 0 1 96.733329 40.327165c1.037355 0.648347 23.340482 15.041644 50.700712 48.496334 24.637175 30.083287 58.351204 82.340032 78.96863 159.75263a67.817066 67.817066 0 0 1 15.041643-1.426363c19.191063 0.648347 36.177746 10.892225 50.441374 30.472295l0.259339 0.518678c0.259339 0.518677 26.322876 49.404019-7.002144 102.568449s-75.208218 51.867737-77.023589 51.867737-40.067827-0.648347-54.590793-33.065682l-75.337888 35.39973c-1.426363 0.648347-141.080244 63.537978-308.353696 84.155403 0 0-6.094459 0.518677-16.338337 0.518677z m150.935114-523.993811c-39.030472 0-75.597226 7.520822-108.662908 22.432796-73.652186 33.325021-104.38382 85.192758-117.091416 123.056206-13.74495 40.586504-10.114209 74.041194-10.114209 74.430202l0.389008 3.241734-3.112064 1.426363c-0.389008 0.129669-37.47444 16.597676-67.946735 47.588648-40.456835 40.975512-50.830382 86.878459-30.990973 136.282479 24.766844 62.111615 78.190613 87.656475 118.647448 98.030022a273.602312 273.602312 0 0 0 83.377387 7.90983c165.198742-20.358087 304.074607-82.72904 305.50097-83.377387l84.285072-39.549149 1.556032 4.797766c10.892225 31.639319 47.588649 31.639319 47.977657 31.639319h0.129669c0.389008 0 38.771133 0.648347 69.11376-47.588648s8.558177-89.731185 6.872475-93.232257c-12.577926-16.986684-27.100892-25.933868-43.179891-26.452546-35.270061-1.037355-68.206074 37.993117-68.595082 38.382125l-1.685702 1.94504-7.002144-5.83512 1.685701-1.94504c0.907685-1.167024 23.081143-27.61957 52.127076-37.733779-20.228417-75.856565-53.034761-126.816617-77.282928-156.381226-26.193207-32.157997-48.236995-46.421624-48.496334-46.551294s-39.030472-23.988828-94.52895-39.289811a346.86549 346.86549 0 0 0-92.972919-13.226273z" p-id="6920"></path><path d="M738.337837 581.826338m-57.962196 0a57.962196 57.962196 0 1 0 115.924391 0 57.962196 57.962196 0 1 0-115.924391 0Z" fill="#FFCCCC" p-id="6921"></path><path d="M263.877714 593.10757m-57.962196 0a57.962196 57.962196 0 1 0 115.924392 0 57.962196 57.962196 0 1 0-115.924392 0Z" fill="#FFCCCC" p-id="6922"></path><path d="M346.606754 337.399628c-12.448257-1.685701-24.637175-12.188918-24.766844-22.821804-0.129669-5.446112 2.982395-9.595531 4.668096-11.79991 15.560321-20.617425 23.470151-30.990973 41.234851-43.568899 13.87462-9.725201 27.878909-19.580071 48.626003-23.599821 15.430652-3.112064 25.415191-1.296693 28.397586-0.648346a69.113759 69.113759 0 0 1 24.248167 10.632886 82.85871 82.85871 0 0 1 19.191063 16.727345c4.797766 5.575782 12.448257 14.911974 15.560321 28.916263 1.426363 6.613136 3.241734 14.652636-0.389008 23.72949-1.037355 2.593387-4.797766 11.79991-14.393297 15.300982a24.248167 24.248167 0 0 1-16.338337-0.129669c-2.463717-0.907685-4.797766-2.204379-18.024039-15.560321-8.817515-8.947185-13.226273-13.355942-14.004289-14.522967a59.907236 59.907236 0 0 0-9.7252-9.595531 20.358087 20.358087 0 0 0-7.650492-4.019749 21.525111 21.525111 0 0 0-5.964789-0.518678c-5.316443 0.389008-9.465862 4.408758-16.468007 12.837265s-6.613136 9.076854-10.762555 14.004289-10.892225 13.096604-20.617426 18.413047c-5.83512 3.371403-13.355942 7.520822-22.821804 6.224128z" p-id="6923"></path><path d="M350.107826 338.307313l-3.630741-0.259338c-13.096604-1.815371-25.155852-12.966934-25.285522-23.470151-0.129669-5.83512 3.112064-10.114209 4.797766-12.188918 15.560321-20.617425 23.470151-31.120642 41.36452-43.698569 12.966934-9.206523 27.61957-19.580071 48.885342-23.729489 13.355942-2.723056 22.951474-1.815371 28.656924-0.648347a72.87417 72.87417 0 0 1 24.377837 10.632886 87.137798 87.137798 0 0 1 19.450401 16.857015c4.279088 5.186774 12.448257 14.782305 15.68999 29.305271 1.426363 6.613136 3.241734 14.911974-0.389008 23.988828s-8.298838 13.355942-14.782305 15.81966a25.155852 25.155852 0 0 1-16.857014-0.259339c-2.593387-0.907685-4.927435-2.204379-18.283377-15.68999l-14.004289-14.393297-0.259339-0.259339a50.311705 50.311705 0 0 0-9.336192-9.336192 20.876764 20.876764 0 0 0-7.391153-3.890081 19.839409 19.839409 0 0 0-5.705451-0.518677c-5.186774 0.389008-9.336193 4.408758-16.078998 12.577926-3.630742 4.408758-5.186774 6.613136-6.742806 8.687846s-2.204379 3.112064-4.01975 5.316443c-4.668096 5.575782-11.021894 13.226273-20.747095 18.672385-5.316443 2.852726-11.79991 6.483467-19.70974 6.483467z m-3.371402-1.556032c9.206523 1.167024 16.468006-2.852726 22.432796-6.094459 9.595531-5.316443 15.81966-12.837265 20.358086-18.283377 1.815371-2.204379 2.852726-3.630742 4.01975-5.316443s3.112064-4.279088 6.742806-8.687846c7.002144-8.558177 11.281233-12.707596 16.986684-13.096604a22.043788 22.043788 0 0 1 6.094459 0.518678 23.470151 23.470151 0 0 1 8.039499 4.149419 55.628148 55.628148 0 0 1 9.465862 9.595531h0.129669c0.907685 1.167024 5.316443 5.575782 14.004289 14.393297 12.966934 13.096604 15.300982 14.522966 17.894369 15.430652a22.951474 22.951474 0 0 0 15.81966 0.129669c6.224128-2.204379 10.892225-7.261483 14.004289-14.911974s1.815371-16.857014 0.389008-23.340482c-3.241734-14.133958-11.151563-23.59982-15.430652-28.656924a84.025734 84.025734 0 0 0-19.061393-16.468007c-4.797766-2.982395-12.707596-8.169169-23.988828-10.503217-5.575782-1.167024-15.041644-2.074709-28.138247 0.648347-21.006433 4.149419-35.5294 14.393297-48.366665 23.470151-17.7647 12.577926-25.54486 22.821804-41.105181 43.43923-1.556032 1.94504-4.668096 6.094459-4.538427 11.281232 0.129669 9.984539 11.670241 20.617425 24.248167 22.303127zM651.329708 322.617323a188.668893 188.668893 0 0 1 18.413047-11.410902 32.417336 32.417336 0 0 1 8.428507-3.241734c2.723056-0.648347 5.186774-1.426363 7.78016-0.907685 4.538427 1.037355 7.131814 4.797766 9.725201 8.169168s6.613136 7.261483 16.468006 17.505362c6.872475 7.261483 10.373547 10.892225 15.81966 14.393297s10.632886 7.002144 19.320732 8.169168c3.630742 0.389008 13.226273 1.685701 22.692135-4.149419s14.133958-18.283377 14.782305-20.358086a28.008578 28.008578 0 0 0 0.778016-4.668097c1.685701-15.949329-26.063538-35.270061-70.280783-67.687396a51.608398 51.608398 0 0 0-22.173458-10.373548c-8.817515-1.685701-16.078998-0.518677-22.173457 0.518678-11.151563 1.94504-18.672385 5.705451-29.045933 10.762555a152.102138 152.102138 0 0 0-23.988828 13.74495c-8.947185 6.353798-16.468006 11.670241-23.340482 21.395442-3.89008 5.446112-8.169169 11.540571-8.947184 20.358086-0.259339 3.501072-1.037355 11.929579 4.668096 18.153708a20.098748 20.098748 0 0 0 11.540571 6.094459c10.503217 2.463717 19.70974-1.167024 28.916264-5.057104a114.23869 114.23869 0 0 0 20.617425-11.410902z" p-id="6924"></path><path d="M753.37948 356.331352a34.751384 34.751384 0 0 1-6.224128-0.518677c-8.817515-1.167024-15.041644-5.186774-19.580071-8.169169s-8.947185-7.131814-15.949329-14.393297c-9.85487-10.373547-14.782305-15.430652-16.468006-17.63503l-0.518678-0.648347c-2.334048-3.112064-4.797766-6.353798-8.817515-7.261483a16.986684 16.986684 0 0 0-7.131814 0.778016h-0.389008a37.863448 37.863448 0 0 0-8.298838 3.112064c-7.650491 4.149419-15.430652 9.465862-17.894369 11.151563l-0.389008 0.389008a124.612238 124.612238 0 0 1-20.747095 11.410902c-8.558177 3.501072-18.283377 7.650491-29.305271 5.057105a21.65478 21.65478 0 0 1-11.929579-6.224129c-5.83512-6.483467-5.057104-15.300982-4.797766-18.672385 0.778016-9.206523 5.446112-15.68999 9.076854-20.747095 7.131814-9.984539 15.041644-15.560321 23.470151-21.52511a165.717419 165.717419 0 0 1 23.988828-13.87462c10.503217-5.057104 18.153708-8.687846 29.305271-10.762555 5.575782-0.907685 13.226273-2.334048 22.432796-0.518678a51.349059 51.349059 0 0 1 22.432797 10.503217l8.039499 5.83512c39.938157 29.305271 64.186324 47.069971 62.500623 62.500623a31.250311 31.250311 0 0 1-0.778016 4.668097c-1.426363 5.186774-5.186774 14.782305-15.041644 20.876764a33.065682 33.065682 0 0 1-16.986684 4.668096z m-69.243428-50.052366h1.94504c4.538427 1.037355 7.261483 4.538427 9.595531 7.78016l0.518677 0.648347c1.685701 2.074709 6.613136 7.261483 16.338337 17.505361 7.002144 7.131814 10.373547 10.762555 15.81966 14.263628s10.373547 6.872475 19.061393 8.039499c3.501072 0.389008 12.966934 1.685701 22.303127-4.019749s13.096604-15.041644 14.393297-20.098748a25.285522 25.285522 0 0 0 0.778016-4.408758c1.556032-14.652636-22.303127-32.287666-61.981945-61.333599l-8.039499-5.83512a51.997406 51.997406 0 0 0-21.914119-10.243878c-8.947185-1.815371-16.078998-0.518677-21.914119 0.518677-11.021894 1.94504-18.542716 5.575782-28.916263 10.632886a160.919653 160.919653 0 0 0-23.859159 13.74495c-8.298838 5.96479-16.208668 11.540571-23.210812 21.265772-3.760411 5.186774-8.039499 11.151563-8.817516 20.098748-0.259339 3.501072-0.907685 11.670241 4.408758 17.635031s8.687846 5.186774 11.281233 5.83512c10.632886 2.463717 20.098748-1.426363 28.527255-5.057104a117.350755 117.350755 0 0 0 20.487756-11.281233l0.389008-0.259338a204.618222 204.618222 0 0 1 18.153708-11.281233 42.920552 42.920552 0 0 1 8.428507-3.241734h0.518678a29.045933 29.045933 0 0 1 5.705451-0.907685zM330.009078 407.680411l-3.89008-0.648346a106.588199 106.588199 0 0 1 14.133958-35.918408c10.373547-16.857014 30.342626-37.863448 66.650042-41.753528 28.656925-3.112064 54.072116 7.90983 73.522517 31.898658a127.335294 127.335294 0 0 1 20.747095 37.47444l-3.760411 1.167024a119.944141 119.944141 0 0 0-20.098748-36.307416c-18.802055-23.210812-42.401875-33.45469-70.021445-30.342626s-49.27435 16.338337-63.667647 39.808488a101.920103 101.920103 0 0 0-13.615281 34.621714z" p-id="6925"></path><path d="M332.213457 410.533137l-8.947184-1.296694 0.389008-2.593386a108.144231 108.144231 0 0 1 14.393297-36.955763c10.632886-17.375692 31.250311-38.900803 68.465412-42.920552 29.694279-3.241734 55.887486 8.039499 75.856565 32.806343a127.464963 127.464963 0 0 1 21.265772 38.382126l0.778016 2.463717-8.687845 2.723056-0.778016-2.463717a123.834222 123.834222 0 0 0-19.70974-35.5294c-18.153708-22.432796-40.975512-32.287666-67.687397-29.43494s-47.718318 15.949329-61.722607 38.641463a100.882748 100.882748 0 0 0-13.226273 33.714029zM766.087076 420.517676a178.295345 178.295345 0 0 0-23.988829-43.30956c-21.265772-27.749239-46.032616-40.197496-73.652186-37.215101-66.390703 7.261483-81.043339 63.0193-81.173008 63.537977l-3.760411-0.907685c0.129669-0.648347 3.760411-14.911974 16.078999-30.472295s32.287666-32.028327 68.335743-36.048077c28.786594-3.112064 55.498478 10.373547 77.412597 38.900802a181.40741 181.40741 0 0 1 24.377836 44.217246z" p-id="6926"></path><path d="M764.401374 423.889079l-0.778016-2.463717a174.923942 174.923942 0 0 0-23.59982-42.531545c-20.617425-27.100892-44.606254-39.289811-71.318138-36.307415-64.186324 7.002144-78.709291 61.07426-78.83896 61.592937l-0.648347 2.463718-8.817515-2.07471 0.648347-2.593387c0.129669-0.648347 3.89008-15.430652 16.468006-31.37998s33.195352-33.065682 70.151114-37.085432c29.694279-3.241734 57.313849 10.632886 79.746645 39.938157a185.038151 185.038151 0 0 1 24.766845 44.995262l0.778016 2.463717zM390.175653 695.67602c-31.898658 0-51.738067-27.230562-51.997406-27.61957l3.112064-2.204379c0.259339 0.259339 22.173457 30.212957 56.276495 25.415191s44.865592-28.656925 44.865592-28.916263l3.630742 1.556032c-0.518677 1.037355-11.670241 26.063538-47.977657 31.250312-2.723056 0.259339-5.316443 0.518677-7.90983 0.518677z" p-id="6927"></path><path d="M390.175653 698.269407c-33.325021 0-53.942446-28.397586-54.072115-28.656925l-1.556033-2.074709 7.391153-5.316443 1.556032 2.074709c0.129669 0.389008 21.265772 28.916263 53.683108 24.377837s42.790883-27.100892 42.920552-27.360232l1.037355-2.334048 8.298837 3.630742-1.037354 2.334048c-0.389008 1.167024-12.188918 27.489901-49.922697 32.676674a61.203929 61.203929 0 0 1-8.298838 0.648347zM830.489948 542.611735l56.850929-18.472694 1.202035 3.699466-56.850929 18.472695z" p-id="6928"></path><path d="M827.220984 540.946781l61.784848-20.075408 2.806044 8.632089-61.784848 20.075407z" p-id="6929"></path><path d="M331.565111 465.642607a82.080694 69.502767 0 1 0 164.161387 0 82.080694 69.502767 0 1 0-164.161387 0Z" p-id="6930"></path><path d="M585.457682 454.491044a75.726896 70.540122 90 1 0 141.080244 0 75.726896 70.540122 90 1 0-141.080244 0Z" p-id="6931"></path><path d="M625.655178 454.491044a23.59982 21.914119 90 1 0 43.828238 0 23.59982 21.914119 90 1 0-43.828238 0Z" fill="#FFFFFF" p-id="6932"></path><path d="M413.645804 465.642607m-25.415191 0a25.415191 25.415191 0 1 0 50.830382 0 25.415191 25.415191 0 1 0-50.830382 0Z" fill="#FFFFFF" p-id="6933"></path><path d="M391.991024 245.853073a270.749586 270.749586 0 0 1 57.702857-27.61957 281.382472 281.382472 0 0 1 74.430202-14.263628c21.006433-1.167024 38.641464 0.259339 55.36881 1.556032 12.577926 1.037355 21.265772 1.685701 33.065682 3.89008 21.914119 3.89008 37.863448 9.85487 50.311704 14.522967a384.33993 384.33993 0 0 1 43.828238 19.969078 321.19096 321.19096 0 0 1 41.105181 25.026183 297.072463 297.072463 0 0 1 35.65907 31.120642A256.485959 256.485959 0 0 1 820.807538 346.217143a265.692482 265.692482 0 0 1 18.413047 35.659069 215.121438 215.121438 0 0 1 11.929579 35.010723c2.593387 10.892225 8.428507 27.360231 8.169169 46.421624 0 0-35.788738 16.986684-46.032617 30.212957l-3.501072 4.538427s-2.204379-55.10947-7.780161-80.265323c-1.167024-5.057104-2.463717-11.021894-4.019749-17.63503s-2.852726-10.892225-4.149419-15.81966c-2.593387-9.85487-3.241734-11.929579-4.797766-17.635031-2.593387-9.984539-2.074709-9.85487-5.316443-23.081143-2.593387-10.373547-4.01975-15.041644-6.872475-20.747094a93.102588 93.102588 0 0 0-5.057104-8.0395c-15.171313-21.265772-43.957907-31.898658-43.957907-31.898658a299.665849 299.665849 0 0 0-59.388559-19.450401c-5.575782-1.167024-20.617425-3.371403-50.700713-7.780161-18.672385-2.852726-28.267917-4.01975-39.160141-5.186773-4.797766-0.518677-16.208668-1.685701-31.379981-2.723056-21.65478-1.426363-39.289811-1.815371-58.091865-1.94504-22.562466-0.129669-52.645753-0.129669-89.212507 0.648346z" p-id="6934"></path><path d="M809.266967 500.004983v-1.815371c0-0.648347-2.334048-55.368809-7.780161-80.265323-1.296693-5.83512-2.593387-11.79991-4.01975-17.63503s-2.723056-10.762555-4.019749-15.689991-2.334048-8.687846-3.112064-11.281232l-1.685702-6.483467c-1.426363-5.057104-1.94504-7.520822-2.593387-10.503217s-1.296693-6.094459-2.852725-12.577926c-2.593387-10.373547-4.01975-15.041644-6.872475-20.487756a54.720462 54.720462 0 0 0-4.927435-8.0395c-14.911974-20.876764-43.43923-31.50965-43.698569-31.639319a296.553785 296.553785 0 0 0-59.258889-19.450401c-5.575782-1.167024-20.617425-3.371403-50.700713-7.780161-18.542716-2.723056-28.138247-4.01975-39.160141-5.186773s-23.859159-2.204379-31.250311-2.723057c-20.617425-1.426363-37.604109-1.815371-58.091866-1.94504-28.786594-0.259339-58.740212 0-89.212507 0.648347l-9.85487-0.778016 1.556032-1.037355a272.564957 272.564957 0 0 1 57.702857-27.749239 286.698915 286.698915 0 0 1 74.689541-14.263628c21.006433-1.167024 38.511795 0.259339 55.36881 1.556032a282.808835 282.808835 0 0 1 33.195351 3.890081 260.635377 260.635377 0 0 1 50.441374 14.652635 347.254498 347.254498 0 0 1 43.828238 19.969079c11.79991 6.224128 25.155852 13.226273 41.234851 25.026183a310.558074 310.558074 0 0 1 35.788738 31.120642 256.096951 256.096951 0 0 1 37.34477 46.291955 259.987031 259.987031 0 0 1 18.542716 35.788739 229.255397 229.255397 0 0 1 11.92958 35.140391c0.518677 2.204379 1.167024 4.797766 1.94504 7.520822 2.852726 10.632886 6.483467 23.859159 6.224128 39.030472v0.389008l-0.259338 0.259339c-0.389008 0.129669-35.918408 16.986684-45.902947 29.953618zM465.383872 245.075056h23.729489c20.617425 0.129669 37.47444 0.518677 58.221535 1.945041 7.391152 0.518677 18.802055 1.426363 31.250311 2.723056s20.617425 2.463717 39.289811 5.186773c29.953618 4.408758 44.995262 6.613136 50.700713 7.90983a290.848334 290.848334 0 0 1 59.518228 19.450402c0.259339 0 29.045933 10.892225 44.217245 32.028327a84.80375 84.80375 0 0 1 5.057104 8.169169c2.982395 5.575782 4.408758 10.373547 7.002145 20.876764 1.556032 6.483467 2.204379 9.725201 2.852725 12.577926s1.167024 5.316443 2.463718 10.503217c0.648347 2.463717 1.167024 4.279088 1.815371 6.353797s1.556032 5.83512 2.982395 11.281233 2.593387 9.595531 4.019749 15.81966 2.852726 11.79991 4.149419 17.63503c4.927435 22.432796 7.261483 68.854421 7.780161 78.579622l2.334048-3.112065c9.725201-12.707596 41.883197-28.267917 45.902947-30.212956 0.129669-14.911974-3.371403-27.878909-6.224128-38.252456-0.648347-2.723056-1.426363-5.316443-1.945041-7.650491a199.820456 199.820456 0 0 0-11.929579-34.881053 239.369605 239.369605 0 0 0-18.413047-35.659069c-14.004289-22.432796-28.527255-37.215101-37.085431-46.032617a307.575679 307.575679 0 0 0-35.65907-30.861303 312.503114 312.503114 0 0 0-41.105181-24.896514 334.417233 334.417233 0 0 0-43.698568-19.969079c-11.79991-4.408758-27.878909-10.503217-50.182036-14.522966a281.641811 281.641811 0 0 0-32.936012-3.89008c-16.986684-1.296693-34.362376-2.723056-55.23914-1.556032a285.272552 285.272552 0 0 0-74.430203 14.263627 271.008925 271.008925 0 0 0-55.757817 26.452546l5.835121 0.518678c22.173457-0.518677 44.087576-0.778016 65.483018-0.778017z" p-id="6935"></path><path d="M235.998805 622.283172h-0.129669a3.89008 3.89008 0 0 1-3.760411-3.89008l0.259339-22.562465a3.89008 3.89008 0 0 1 7.78016 0.129669l-0.259338 22.432796a3.89008 3.89008 0 0 1-3.890081 3.89008zM263.877714 622.283172a3.89008 3.89008 0 0 1-3.89008-3.89008v-22.432796a3.89008 3.89008 0 0 1 3.89008-3.89008 3.760411 3.760411 0 0 1 3.89008 3.89008v22.432796a3.760411 3.760411 0 0 1-3.89008 3.89008zM291.108276 617.874415a4.01975 4.01975 0 0 1-3.89008-3.241734l-3.371403-18.024038a3.89008 3.89008 0 1 1 7.650491-1.426363l3.371403 18.024038a3.760411 3.760411 0 0 1-3.112064 4.538427zM766.216745 602.314094a4.01975 4.01975 0 0 1-3.89008-3.112064l-3.371403-18.024039a3.89008 3.89008 0 0 1 7.650491-1.426363l3.371403 18.024039a3.89008 3.89008 0 0 1-3.112064 4.538427zM738.337837 602.573432a3.89008 3.89008 0 0 1-3.890081-3.89008v-18.413046a3.760411 3.760411 0 0 1 3.890081-3.890081 3.89008 3.89008 0 0 1 3.89008 3.890081v18.413046a4.01975 4.01975 0 0 1-3.89008 3.89008zM712.533637 603.740457h-0.389008a3.89008 3.89008 0 0 1-3.501072-4.279089l2.204379-20.876764a3.89008 3.89008 0 0 1 4.279088-3.501072 4.01975 4.01975 0 0 1 3.501073 4.279088l-2.204379 21.006434a3.89008 3.89008 0 0 1-3.890081 3.371403z" fill="#DB9A9A" p-id="6936"></path></svg>